<svg width="358" height="32" viewBox="0 0 358 32" fill="none" xmlns="http://www.w3.org/2000/svg">
<g clip-path="url(#clip0_302_36377)">
<path d="M18.2987 0.824707H17.7118C17.6817 1.50569 17.3186 1.8002 16.6376 1.8002C15.2699 1.8002 13.0576 0.145599 10.7117 0.145599C4.03714 0.145599 0 6.70213 0 12.4783C0 18.2919 3.84335 24.0361 10.2865 24.0361C14.1957 24.0361 15.6612 22.1883 16.7015 22.1883C17.3863 22.1883 17.7776 23.0344 17.9074 23.5184H18.3965V15.5623H17.9074L17.7119 16.6673C17.2548 19.2993 14.8148 23.4527 10.6159 23.4527C6.90234 23.4527 5.47256 19.9784 5.47256 12.088C5.47256 3.81312 7.42342 0.727142 10.7118 0.727142C14.4235 0.727142 17.1908 5.17321 17.7119 8.48807H18.2989L18.2987 0.824707Z" fill="white"/>
<path d="M36.0528 20.762H35.4753C35.4753 21.5968 35.1216 22.5573 34.3503 22.5573C33.7727 22.5573 33.6147 21.9495 33.6147 20.9572V13.5883C33.6147 9.93765 30.1759 9.03906 26.8687 9.03906C23.6574 9.03906 21.3115 10.6111 21.3115 12.4027C21.3115 13.5264 21.953 14.485 23.3978 14.485C24.6187 14.485 25.358 13.6859 25.358 12.5621C25.358 11.0276 23.7553 11.1214 23.7195 10.5774C23.6912 9.872 25.5518 9.61874 26.6448 9.61874C29.0509 9.61874 29.3745 10.7987 29.3745 12.7235V15.4118L26.2253 15.6688C23.3056 15.8939 20.1244 16.663 20.1244 19.9929C20.1244 22.7806 22.6284 23.9043 25.1022 23.9043C26.3532 23.9043 28.5693 23.4203 29.4064 21.8857C29.984 23.2289 31.1729 23.9043 32.6158 23.9043C34.704 23.9043 36.0528 22.653 36.0528 20.762ZM29.3745 19.7077C29.3105 21.4055 28.3435 22.94 26.8366 22.94C24.6525 22.94 24.5585 20.9572 24.5585 19.2913C24.5585 17.5898 24.7484 16.4698 26.8366 16.2466L29.3745 15.9896V19.7077Z" fill="white"/>
<path d="M36.2338 23.5176H45.8393V22.9398H42.8839V14.7662C42.8839 12.3011 43.6552 10.5715 45.6794 9.67288H45.8073C45.2618 10.2488 45.036 10.7591 45.036 11.5601C45.036 12.8114 45.9673 13.6443 47.2202 13.6443C48.7628 13.6443 49.662 12.5281 49.662 11.3069C49.662 9.76667 48.633 8.83807 47.1242 8.83807C45.068 8.83807 43.4935 10.2488 42.884 11.8509H42.82V8.58295C42.1446 9.41401 39.7687 9.414 38.4518 9.414H36.2338V9.98804H38.4518V22.9398H36.2338V23.5176Z" fill="white"/>
<path d="M50.1639 23.5176H58.7047V22.9398H56.8104V14.1584C56.8104 12.5281 58.4169 10.185 60.2134 10.185C61.1446 10.185 62.1117 10.5715 62.1117 12.8114V22.9398H60.2793V23.5176H68.7561V22.9398H66.5401V13.9989C66.5401 10.5377 65.0633 9.03131 62.0119 9.03131C59.8636 9.03131 57.7415 10.1513 56.8743 12.0085H56.8103V8.58295C56.1349 9.41401 53.7627 9.414 52.4439 9.414H50.1639V9.98804H52.38V22.9398H50.1639V23.5176Z" fill="white"/>
<path d="M73.4359 15.7682H82.3021C82.2702 12.3089 79.0569 8.97902 75.6839 9.03906C71.8969 9.03906 68.6161 12.3089 68.6161 16.6311C68.6161 20.7958 71.6674 23.9043 75.7817 23.9043C79.7323 23.9043 81.6926 21.4674 82.3981 18.2951H81.8205C81.1151 21.2761 79.2507 23.1333 76.7449 23.1333C73.7576 23.1333 73.4359 20.6345 73.4359 18.4583V15.7682ZM73.4359 15.1885V12.4364C73.4359 10.2885 74.369 9.61874 75.4601 9.61874C76.9989 9.61874 77.4842 10.673 77.4842 12.4364V15.1885H73.4359Z" fill="white"/>
<path d="M98.2509 10.4828C98.2509 9.35907 97.0319 8.78503 96.0669 8.78503C95.0096 8.78503 94.2063 9.49038 93.593 10.1939C92.6599 9.52228 91.3788 9.0383 89.5804 9.0383C86.8827 9.0383 83.9893 10.7998 83.9893 13.717C83.9893 15.4766 84.9544 16.8536 86.6569 17.6227V17.6845C85.404 17.8439 83.4438 18.7107 83.4438 21.369C83.4438 22.9673 84.1831 24.1867 85.5319 24.5731V24.6349C84.2471 24.9839 82.7703 26.2651 82.7703 27.8034C82.7703 30.1728 85.5658 32 89.1307 32C93.593 32 96.5183 28.9891 96.5183 25.0833C96.5183 21.9748 94.9758 20.5678 91.8285 20.6316H86.4952C85.6919 20.6316 84.6008 20.5996 84.6008 19.7368C84.6008 18.9339 85.9835 18.0709 87.2025 18.0709C87.5562 18.0709 87.908 18.1665 88.2636 18.2603C88.6473 18.3897 89.0649 18.4555 89.5804 18.4555C92.342 18.4555 95.2955 16.8834 95.2955 13.8425C95.2955 12.8182 94.8158 11.3793 93.9166 10.6102C94.4941 10.0342 94.7839 9.327 96.0368 9.1694V9.23322C95.3614 9.58402 95.1695 10.0005 95.1695 10.6439C95.1695 11.3793 95.6831 12.1166 96.6444 12.1166C97.6753 12.1166 98.2509 11.3457 98.2509 10.4828ZM86.0474 24.6668H91.0891C94.3004 24.6668 95.3614 24.9539 95.3614 26.9086C95.3614 29.2461 92.4718 31.4222 89.2267 31.4222C86.3353 31.4222 84.7645 29.4693 84.6967 27.9348C84.6967 26.5241 85.1783 25.5954 86.0474 24.6668ZM91.6365 13.7168C91.6026 17.6545 90.7674 17.8777 89.6123 17.8777C88.3274 17.8777 87.6521 17.4612 87.6521 13.6173C87.6521 11.0266 87.9418 9.61777 89.6123 9.61777C91.1211 9.61777 91.6026 10.0343 91.6365 13.7168Z" fill="white"/>
<path d="M98.7524 23.5176H107.624V22.9398H105.406V8.58295C104.731 9.41401 102.351 9.414 101.036 9.414H98.7524V9.98804H100.969V22.9398H98.7524V23.5176Z" fill="white"/>
<path d="M100.895 4.45938C100.895 5.72942 101.912 6.74805 103.188 6.74805C104.463 6.74805 105.481 5.72942 105.481 4.45938C105.481 3.18934 104.463 2.17444 103.188 2.17444C101.912 2.17444 100.895 3.18934 100.895 4.45938Z" fill="white"/>
<path d="M112.442 15.7682H121.304C121.276 12.3089 118.061 8.97902 114.688 9.03906C110.899 9.03906 107.62 12.3089 107.62 16.6311C107.62 20.7958 110.677 23.9043 114.784 23.9043C118.737 23.9043 120.699 21.4674 121.402 18.2951H120.825C120.119 21.2761 118.257 23.1333 115.749 23.1333C112.764 23.1333 112.442 20.6345 112.442 18.4583V15.7682ZM112.442 15.1885V12.4364C112.442 10.2885 113.373 9.61874 114.466 9.61874C116.007 9.61874 116.489 10.673 116.489 12.4364V15.1885H112.442Z" fill="white"/>
<path d="M126.929 23.5176H133.158V22.9417H132.708C130.973 22.9417 130.3 22.4933 130.3 19.8988V1.74503H130.366L138.037 23.5176H138.907L146.386 2.12961H146.45V22.9417H143.687V23.5176H153.866V22.9417H151.458V1.55182H153.866V0.975861H146.129L140.701 16.4433H140.637L135.308 0.975861H127.089V1.55182H129.527V20.1896C129.527 21.5666 129.207 22.9417 127.057 22.9417H126.929L126.929 23.5176Z" fill="white"/>
<path d="M158.363 15.7682H167.228C167.197 12.3089 163.984 8.97902 160.611 9.03906C156.822 9.03906 153.543 12.3089 153.543 16.6311C153.543 20.7958 156.597 23.9043 160.711 23.9043C164.658 23.9043 166.622 21.4674 167.325 18.2951H166.748C166.044 21.2761 164.18 23.1333 161.672 23.1333C158.683 23.1333 158.363 20.6345 158.363 18.4583V15.7682ZM158.363 15.1885V12.4364C158.363 10.2885 159.294 9.61874 160.387 9.61874C161.93 9.61874 162.412 10.673 162.412 12.4364V15.1885H158.363Z" fill="white"/>
<path d="M167.313 23.5176H176.185V22.9417H173.967V0.000366211C173.387 0.960866 171.619 0.960876 169.337 0.960876H167.313V1.53867H169.533V22.9417H167.313V23.5176Z" fill="white"/>
<path d="M176.747 23.5176H185.619V22.9417H183.403V0.000366211C182.822 0.960866 181.055 0.960876 178.773 0.960876H176.747V1.53867H178.963V22.9417H176.747V23.5176Z" fill="white"/>
<path d="M200.542 16.4698C200.542 12.0837 197.139 9.03906 192.898 9.03906C188.66 9.03906 185.253 12.0837 185.253 16.4698C185.253 20.8596 188.66 23.9043 192.898 23.9043C197.139 23.9043 200.542 20.8596 200.542 16.4698ZM195.53 19.9291C195.53 22.3341 194.537 23.3246 192.898 23.3246C191.262 23.3246 190.265 22.3341 190.265 19.9291V13.0105C190.265 10.6111 191.262 9.61874 192.898 9.61874C194.537 9.61874 195.53 10.6111 195.53 13.0105V19.9291Z" fill="white"/>
<path d="M200.561 23.5176H209.104V22.9398H207.211V14.1584C207.211 12.5281 208.818 10.185 210.616 10.185C211.546 10.185 212.511 10.5715 212.511 12.8114V22.9398H210.677V23.5176H219.159V22.9398H216.939V13.9989C216.939 10.5377 215.464 9.03131 212.413 9.03131C210.263 9.03131 208.143 10.1513 207.274 12.0085H207.212V8.58295C206.538 9.41401 204.16 9.414 202.843 9.414H200.561V9.98804H202.779V22.9398H200.561L200.561 23.5176Z" fill="white"/>
<path d="M223.632 1.55145H226.138V16.0583C226.138 21.0203 229.569 24.0312 234.807 24.0312C240.714 24.0312 243.282 20.9228 243.282 16.2141V4.24158C243.282 2.38436 243.795 1.55145 244.952 1.55145H245.787V0.975494H239.431V1.55145H240.362C242 1.55145 242.514 2.38436 242.514 4.24158V16.411C242.514 20.7614 239.878 22.8756 236.763 22.8756C232.075 22.8756 231.146 19.739 231.146 15.6419V1.55145H233.746V0.975494H223.632V1.55145Z" fill="white"/>
<path d="M244.538 23.5176H253.079V22.9398H251.186V14.1584C251.186 12.5281 252.787 10.185 254.585 10.185C255.52 10.185 256.482 10.5715 256.482 12.8114V22.9398H254.653V23.5176H263.13V22.9398H260.918V13.9989C260.918 10.5377 259.437 9.03131 256.388 9.03131C254.237 9.03131 252.115 10.1513 251.25 12.0085H251.186V8.58295C250.509 9.41401 248.135 9.414 246.814 9.414H244.538V9.98804H246.75V22.9398H244.538V23.5176Z" fill="white"/>
<path d="M263.599 23.5176H272.471V22.9398H270.255V8.58295C269.577 9.41401 267.202 9.414 265.881 9.414H263.599V9.98804H265.821V22.9398H263.599V23.5176Z" fill="white"/>
<path d="M265.741 4.45938C265.741 5.72942 266.763 6.74805 268.038 6.74805C269.31 6.74805 270.328 5.72942 270.328 4.45938C270.328 3.18934 269.31 2.17444 268.038 2.17444C266.763 2.17444 265.741 3.18934 265.741 4.45938Z" fill="white"/>
<path d="M278.978 23.9043H279.845L284.597 12.6916C285.4 10.8981 286.074 10.0333 286.813 10.0014H287.105V9.42361H282.093V10.0014H282.706C283.636 10.0014 284.181 10.3522 284.181 11.1852C284.181 11.7011 284.021 12.4027 283.636 13.2994L281.452 18.4246L277.693 10.0014H279.621V9.42361H271.56V10.0014H272.941L278.978 23.9043Z" fill="white"/>
<path d="M290.627 15.7682H299.493C299.463 12.3089 296.25 8.97902 292.879 9.03906C289.086 9.03906 285.809 12.3089 285.809 16.6311C285.809 20.7958 288.862 23.9043 292.977 23.9043C296.925 23.9043 298.884 21.4674 299.591 18.2951H299.017C298.306 21.2761 296.446 23.1333 293.94 23.1333C290.95 23.1333 290.849 20.6345 290.849 18.4583L290.627 15.7682ZM290.627 15.1885V12.4364C290.627 10.2885 291.56 9.61874 292.653 9.61874C294.194 9.61874 294.674 10.673 294.674 12.4364V15.1885H290.627Z" fill="white"/>
<path d="M299.568 23.5176H309.172V22.9398H306.218V14.7662C306.218 12.3011 306.99 10.5715 309.014 9.67288H309.142C308.596 10.2488 308.371 10.7591 308.371 11.5601C308.371 12.8114 309.3 13.6443 310.555 13.6443C312.097 13.6443 312.997 12.5281 312.997 11.3069C312.997 9.76667 311.969 8.83807 310.457 8.83807C308.403 8.83807 306.828 10.2488 306.218 11.8509H306.154V8.58295C305.479 9.41401 303.103 9.414 301.786 9.414H299.568V9.98804H301.786V22.9398H299.568V23.5176Z" fill="white"/>
<path d="M313.694 23.9043H314.273C314.435 23.3884 314.949 23.1333 315.592 23.1333C316.426 23.1333 317.421 23.9043 319.221 23.9043C322.274 23.9043 324.361 21.276 324.361 18.6497C324.361 14.742 321.665 14.4531 318.224 13.9729C316.426 13.7159 315.303 13.427 315.303 12.0162C315.303 10.5117 316.619 9.61874 318.354 9.61874C320.762 9.61874 322.049 11.506 322.854 13.5883H323.365L323.172 9.03906H322.69C322.69 9.42362 322.308 9.74442 321.695 9.74442C320.666 9.74442 319.831 9.03906 318.354 9.03906C315.143 9.03906 313.57 11.7649 313.57 13.8134C313.57 17.9462 316.715 18.2951 319.155 18.584C321.471 18.8748 322.434 19.0962 322.434 20.5707C322.434 22.2703 321.023 23.3246 319.285 23.3246C316.845 23.3246 314.853 20.8596 314.274 18.5221H313.694V23.9043Z" fill="white"/>
<path d="M324.928 23.5176H333.796V22.9398H331.582V8.58295C330.907 9.41401 328.529 9.414 327.212 9.414H324.928V9.98804H327.148V22.9398H324.928V23.5176Z" fill="white"/>
<path d="M327.074 4.45938C327.074 5.72942 328.088 6.74805 329.363 6.74805C330.641 6.74805 331.659 5.72942 331.659 4.45938C331.659 3.18934 330.641 2.17444 329.363 2.17444C328.088 2.17444 327.074 3.18934 327.074 4.45938Z" fill="white"/>
<path d="M335.069 10.0023V20.2508C335.069 23.2936 337.703 23.9033 338.602 23.9033C340.562 23.9033 341.879 23.1023 342.876 21.4364L342.461 21.2113C342.073 21.7872 341.556 22.5583 340.754 22.5583C339.921 22.5583 339.503 21.9486 339.503 20.8943V10.0023H342.461V9.42831H339.503V2.5416H338.924C338.924 5.93712 336.61 9.42831 333.365 9.42831V10.0023H335.069Z" fill="white"/>
<path d="M342.352 10.0007H343.699L349.863 24.2487L349.673 25.5281C349.544 26.4586 348.9 30.1112 347.841 30.4282V30.3344C347.969 29.8841 348.003 29.5352 348.003 29.2463C348.003 28.1564 347.234 27.3234 345.881 27.3234C344.47 27.3234 343.765 28.2858 343.765 29.5015C343.765 30.8146 344.985 31.7451 346.395 31.7451C348.934 31.7451 349.576 28.9555 349.863 27.6123L350.733 23.7066L352.403 19.5438L355.581 12.4001C356.29 10.7717 356.929 10.0007 357.637 10.0007H357.894V9.42291H352.887V10.0007H353.56C354.585 10.0007 355.037 10.5785 355.037 11.1225C355.037 11.7585 354.617 12.8184 354.106 14.034L352.243 18.4219L348.485 10.0007H350.605V9.42291H342.352L342.352 10.0007Z" fill="white"/>
</g>
<defs>
<clipPath id="clip0_302_36377">
<rect width="358" height="32" fill="white"/>
</clipPath>
</defs>
</svg>
