<svg width="314" height="64" viewBox="0 0 314 64" fill="none" xmlns="http://www.w3.org/2000/svg">
<g clip-path="url(#clip0_302_36322)">
<path d="M227.765 36.6369H223.309C223.106 36.6369 222.929 36.5037 222.863 36.3092L215.501 13.088C215.405 12.7859 215.627 12.4736 215.947 12.4736H220.402C220.605 12.4736 220.782 12.6067 220.848 12.8013L228.21 36.0224C228.307 36.3245 228.084 36.6369 227.765 36.6369Z" fill="white"/>
<path d="M239.274 36.6369H234.818C234.615 36.6369 234.438 36.5037 234.373 36.3092L227.01 13.088C226.914 12.7859 227.137 12.4736 227.455 12.4736H231.912C232.114 12.4736 232.291 12.6067 232.357 12.8013L239.719 36.0224C239.815 36.3245 239.593 36.6369 239.274 36.6369Z" fill="white"/>
<path d="M243.522 12.8062C243.461 12.6116 243.279 12.4785 243.077 12.4785H238.621C238.307 12.4785 238.084 12.7857 238.175 13.0878L242.301 26.0988C242.439 26.534 243.051 26.534 243.188 26.0988L245.37 19.217C245.431 19.0276 245.431 18.8279 245.37 18.6384L243.522 12.8011V12.8062Z" fill="white"/>
<path d="M173.651 36.6369H159.423C159.109 36.6369 158.791 36.3706 158.791 36.0019V1.16782C158.791 0.794028 159.105 0.476562 159.423 0.476562H170.71C173.495 0.476562 176.487 0.850352 178.953 2.60153C181.105 4.08645 182.629 6.42647 182.629 9.6626C182.629 13.5387 180.846 16.1911 177.956 17.5225V17.7324C183.049 18.741 185.571 22.141 185.571 26.9184C185.571 33.662 179.637 36.6369 173.651 36.6369ZM174.487 6.31895C173.439 5.6277 172.122 5.31023 170.761 5.31023H164.669V15.8788H170.233C171.601 15.8788 173.069 15.7713 174.224 15.1875C175.641 14.4451 176.695 12.955 176.695 10.6201C176.695 8.55145 175.803 7.16894 174.487 6.31895ZM176.745 21.5061C175.484 20.8148 173.803 20.6561 171.125 20.6561H164.669V31.8084H172.385C173.854 31.8084 175.221 31.6496 176.375 31.1734C178.264 30.3747 179.581 28.8385 179.581 26.181C179.581 24.2148 178.689 22.4636 176.745 21.5061Z" fill="white"/>
<path d="M192.447 15.5043C194.756 13.3281 197.961 12.002 201.531 12.002C205.1 12.002 208.306 13.3281 210.614 15.5043C212.923 17.7368 214.291 20.8654 214.291 24.5828C214.291 28.3002 212.979 31.5363 210.614 33.7176C208.356 35.8938 205.049 37.1688 201.531 37.1688C198.012 37.1688 194.705 35.8938 192.447 33.7176C190.082 31.5414 188.72 28.3565 188.72 24.5828C188.72 20.8091 190.138 17.7317 192.447 15.5043ZM196.123 30.2664C197.435 31.7002 199.328 32.6014 201.531 32.6014C203.733 32.6014 205.572 31.7002 206.888 30.2664C208.2 28.7815 208.99 26.8666 208.99 24.5828C208.99 22.2991 208.2 20.3892 206.888 18.8992C205.576 17.4654 203.683 16.5642 201.531 16.5642C199.379 16.5642 197.435 17.4654 196.123 18.8992C194.812 20.3841 194.072 22.2991 194.072 24.5828C194.072 26.8666 194.807 28.7764 196.123 30.2664Z" fill="white"/>
<path d="M268.125 30.9583C268.596 30.692 268.915 30.8508 269.072 31.117L270.49 33.7694C270.702 34.0869 270.541 34.4044 270.227 34.6194C268.282 36.0019 264.819 37.1694 261.193 37.1694C257.204 37.1694 253.948 35.8432 251.74 33.452C249.638 31.2194 248.433 28.0345 248.433 24.2659C248.433 20.7636 249.695 17.6811 251.796 15.4537C253.791 13.3287 256.732 12.0537 260.51 12.0537C264.607 12.0537 267.649 13.595 269.487 16.0374C271.219 18.3211 271.954 21.6648 271.746 25.3309C271.695 25.7559 271.432 26.0734 271.012 26.0734H254.105C254.261 27.9833 254.895 29.417 255.892 30.5333C257.204 32.0746 259.198 32.8682 261.563 32.8682C264.135 32.8682 266.288 32.0694 268.125 30.9583ZM266.551 22.4072C266.444 20.7073 265.974 19.3811 264.976 18.2648C263.979 17.1486 262.454 16.4061 260.46 16.4061C258.465 16.4061 256.732 17.1486 255.679 18.3723C254.788 19.4323 254.211 20.866 254.105 22.4072H266.551Z" fill="white"/>
<path d="M281.645 36.0011C281.645 36.3749 281.382 36.6361 281.017 36.6361H276.921C276.551 36.6361 276.237 36.3698 276.237 36.0011V13.1129C276.237 12.7954 276.551 12.478 276.921 12.478H280.804C281.174 12.478 281.487 12.7954 281.487 13.1129V15.4478H281.645C283.113 13.2153 285.164 12.0479 287.893 12.0479C290.152 12.0479 292.147 12.7391 293.671 14.014C293.985 14.2803 294.091 14.649 293.934 14.9152L292.41 18.1002C292.252 18.4176 291.883 18.5252 291.463 18.2589C290.096 17.4089 288.785 16.8764 287.052 16.8764C282.957 16.8764 281.645 21.1775 281.645 24.9462V36.0011Z" fill="white"/>
<path d="M307.808 30.2104C307.808 28.618 306.547 27.9267 304.972 27.1842C303.504 26.493 301.352 25.9092 299.564 25.0592C296.992 23.8355 295.625 21.8743 295.625 18.8481C295.625 14.5983 298.881 11.9971 304.709 11.9971C308.227 11.9971 310.588 12.8471 312.319 13.8046C312.739 14.0197 312.79 14.3371 312.633 14.6546L311.165 17.6807C310.952 18.0545 310.694 18.1057 310.325 17.8906C308.592 16.9331 306.755 16.4569 305.023 16.4569C302.764 16.4569 301.19 17.1482 301.19 18.7406C301.19 20.1231 302.344 20.8093 303.762 21.4493C305.392 22.1406 307.438 22.7755 309.063 23.5743C312.162 25.1156 313.367 26.9743 313.367 29.7342C313.367 34.1428 309.747 37.169 303.914 37.169C299.874 37.169 297.245 36.1603 295.564 35.044C295.251 34.8341 295.144 34.5678 295.301 34.2452L296.77 31.2191C296.926 30.8453 297.24 30.7429 297.61 30.9528C299.498 32.1766 301.549 32.919 303.651 32.919C306.066 32.919 307.798 32.069 307.798 30.2104H307.808Z" fill="white"/>
<path d="M0 18.5308C0 8.1773 8.40028 0 18.9019 0C23.9451 0 27.3022 1.32618 29.7731 2.70869C30.1934 2.91863 30.2997 3.29242 30.087 3.60989L28.2491 7.48604C28.0921 7.91103 27.7224 7.91103 27.4085 7.7523C25.2009 6.58485 22.578 5.36107 18.745 5.36107C11.9194 5.36107 6.09134 11.2034 6.09134 18.5308C6.09134 26.3906 11.8131 31.8029 18.7955 31.8029C22.578 31.8029 25.4135 30.6354 27.6161 29.3604C27.9857 29.1454 28.244 29.2017 28.4566 29.5755L30.2947 33.5592C30.4516 33.933 30.401 34.1941 29.9807 34.4092C27.2516 35.8941 23.8894 37.1691 18.745 37.1691C7.66608 37.1691 0 29.8929 0 18.5308Z" fill="white"/>
<path d="M35.8595 15.5043C38.1684 13.3281 41.3736 12.002 44.9434 12.002C48.513 12.002 51.7183 13.3281 54.0271 15.5043C56.3361 17.7368 57.7032 20.8654 57.7032 24.5828C57.7032 28.3002 56.3918 31.5363 54.0271 33.7176C51.7688 35.8938 48.4625 37.1688 44.9434 37.1688C41.4242 37.1688 38.1178 35.8938 35.8595 33.7176C33.4949 31.5414 32.1328 28.3565 32.1328 24.5828C32.1328 20.8091 33.5505 17.7317 35.8595 15.5043ZM39.5355 30.2664C40.847 31.7002 42.7407 32.6014 44.9434 32.6014C47.1459 32.6014 48.984 31.7002 50.3004 30.2664C51.6119 28.7815 52.4018 26.8666 52.4018 24.5828C52.4018 22.2991 51.6119 20.3892 50.3004 18.8992C48.989 17.4654 47.0953 16.5642 44.9434 16.5642C42.7914 16.5642 40.847 17.4654 39.5355 18.8992C38.2241 20.3841 37.4849 22.2991 37.4849 24.5828C37.4849 26.8666 38.219 28.7764 39.5355 30.2664Z" fill="white"/>
<path d="M66.9794 36.0011C66.9794 36.3749 66.7161 36.6361 66.3515 36.6361H62.2552C61.8856 36.6361 61.5717 36.3698 61.5717 36.0011V13.1129C61.5717 12.7954 61.8856 12.478 62.2552 12.478H66.1388C66.5085 12.478 66.8224 12.7954 66.8224 13.1129V15.4478H66.9794C68.4478 13.2153 70.4985 12.0479 73.2277 12.0479C75.486 12.0479 77.481 12.7391 79.0051 14.014C79.319 14.2803 79.4254 14.649 79.2685 14.9152L77.7443 18.1002C77.5873 18.4176 77.2178 18.5252 76.7974 18.2589C75.4304 17.4089 74.1189 16.8764 72.3871 16.8764C68.2909 16.8764 66.9794 21.1775 66.9794 24.9462V36.0011Z" fill="white"/>
<path d="M104.839 36.0015C104.839 36.3753 104.576 36.6365 104.211 36.6365H100.064C99.6945 36.6365 99.4361 36.3702 99.4361 36.0015V23.4719C99.4361 21.2957 99.1221 19.3295 97.9124 18.0545C97.0714 17.2045 95.8617 16.672 94.0786 16.672C91.6638 16.672 89.7752 17.7882 88.6156 19.8569C87.7244 21.5005 87.3548 23.518 87.3548 25.4842V35.9964C87.3548 36.3702 87.0915 36.6313 86.727 36.6313H82.6306C82.2609 36.6313 81.947 36.3651 81.947 35.9964V13.1134C81.947 12.7959 82.2609 12.4784 82.6306 12.4784H86.5143C86.8839 12.4784 87.1979 12.7959 87.1979 13.1134V15.7145H87.3548C89.0865 13.2721 91.8157 11.9971 95.1271 11.9971C97.8568 11.9971 100.327 12.6884 102.059 14.2808C103.847 15.8732 104.844 18.4744 104.844 22.1406V36.0015H104.839Z" fill="white"/>
<path d="M128.243 30.9583C128.713 30.692 129.032 30.8508 129.189 31.117L130.607 33.7694C130.819 34.0869 130.657 34.4044 130.343 34.6194C128.399 36.0019 124.936 37.1694 121.31 37.1694C117.32 37.1694 114.064 35.8432 111.857 33.452C109.755 31.2194 108.55 28.0345 108.55 24.2659C108.55 20.7636 109.811 17.6811 111.913 15.4537C113.908 13.3287 116.85 12.0537 120.627 12.0537C124.723 12.0537 127.766 13.595 129.604 16.0374C131.336 18.3211 132.07 21.6648 131.862 25.3309C131.812 25.7559 131.548 26.0734 131.129 26.0734H114.222C114.378 27.9833 115.011 29.417 116.009 30.5333C117.32 32.0746 119.315 32.8682 121.68 32.8682C124.252 32.8682 126.404 32.0694 128.243 30.9583ZM126.668 22.4072C126.561 20.7073 126.09 19.3811 125.092 18.2648C124.095 17.1486 122.571 16.4061 120.576 16.4061C118.581 16.4061 116.85 17.1486 115.796 18.3723C114.905 19.4323 114.327 20.866 114.222 22.4072H126.668Z" fill="white"/>
<path d="M137.033 0.476562H141.129C141.498 0.476562 141.757 0.794028 141.757 1.16782V36.0019C141.757 36.3757 141.494 36.6369 141.129 36.6369H137.033C136.663 36.6369 136.349 36.3706 136.349 36.0019V1.16782C136.349 0.794028 136.663 0.476562 137.033 0.476562Z" fill="white"/>
<path d="M148.273 0.476562H152.37C152.739 0.476562 152.998 0.794028 152.998 1.16782V36.0019C152.998 36.3757 152.735 36.6369 152.37 36.6369H148.273C147.903 36.6369 147.59 36.3706 147.59 36.0019V1.16782C147.59 0.794028 147.903 0.476562 148.273 0.476562Z" fill="white"/>
<path d="M1.70136 54.44C1.70136 51.2398 4.33942 48.6182 7.5699 48.6182C9.16996 48.6182 10.2232 49.0688 10.9979 49.5194C11.1143 49.586 11.1447 49.6679 11.0991 49.7703L10.7042 50.6049C10.6535 50.7227 10.5574 50.7073 10.4712 50.6561C9.79275 50.2721 8.88641 49.8215 7.53446 49.8215C5.10906 49.8215 3.06342 51.9208 3.06342 54.44C3.06342 57.2102 5.12425 59.0945 7.54965 59.0945C8.8864 59.0945 9.84342 58.6593 10.5168 58.2445C10.6181 58.178 10.6839 58.1933 10.7498 58.2957L11.1447 59.1611C11.1802 59.243 11.1599 59.3096 11.0637 59.3761C10.2232 59.8575 9.16489 60.2927 7.53446 60.2927C4.2027 60.2927 1.69629 57.9936 1.69629 54.44H1.70136Z" fill="white"/>
<path d="M13.322 53.5906C14.0309 52.8738 15.0385 52.459 16.1575 52.459C17.2765 52.459 18.2842 52.8738 18.993 53.5906C19.6867 54.2768 20.0969 55.2394 20.0969 56.3762C20.0969 57.5129 19.6867 58.4754 18.993 59.1616C18.2842 59.8784 17.2765 60.2932 16.1575 60.2932C15.0385 60.2932 14.0309 59.8784 13.322 59.1616C12.6283 58.4754 12.2181 57.5129 12.2181 56.3762C12.2181 55.2394 12.6283 54.2768 13.322 53.5906ZM14.1473 58.414C14.6232 58.9619 15.3322 59.2998 16.1575 59.2998C16.9829 59.2998 17.6917 58.967 18.1677 58.414C18.6437 57.8968 18.9121 57.18 18.9121 56.3813C18.9121 55.5825 18.6487 54.8656 18.1677 54.3485C17.6917 53.8006 16.9829 53.4626 16.1575 53.4626C15.3322 53.4626 14.6232 53.7955 14.1473 54.3485C13.6713 54.8656 13.403 55.5825 13.403 56.3813C13.403 57.18 13.6663 57.8968 14.1473 58.414Z" fill="white"/>
<path d="M22.1122 48.7715H23.0033C23.0843 48.7715 23.1501 48.8534 23.1501 48.9405V59.9801C23.1501 60.062 23.0843 60.1285 23.0033 60.1285H22.1122C22.0311 60.1285 21.9451 60.062 21.9451 59.9801V48.9405C21.9451 48.8586 22.026 48.7715 22.1122 48.7715Z" fill="white"/>
<path d="M25.5907 48.7715H26.4818C26.5629 48.7715 26.6287 48.8534 26.6287 48.9405V59.9801C26.6287 60.062 26.5629 60.1285 26.4818 60.1285H25.5907C25.5096 60.1285 25.4236 60.062 25.4236 59.9801V48.9405C25.4236 48.8586 25.5046 48.7715 25.5907 48.7715Z" fill="white"/>
<path d="M34.7454 58.6284C34.8771 58.5464 34.9581 58.5925 34.9935 58.6642L35.3074 59.2787C35.3581 59.3606 35.3226 59.4272 35.2416 59.4937C34.6341 59.9085 33.5605 60.2925 32.4061 60.2925C31.1706 60.2925 30.1477 59.8573 29.4693 59.0738C28.8415 58.3723 28.4971 57.4046 28.4971 56.273C28.4971 55.2079 28.8616 54.2401 29.4845 53.554C30.1073 52.8679 31.0187 52.4531 32.2036 52.4531C33.3884 52.4531 34.3302 52.9344 34.9075 53.6513C35.4493 54.3528 35.748 55.3359 35.6821 56.5187C35.6821 56.6365 35.6012 56.7031 35.4846 56.7031H29.7478C29.7985 57.338 30.0111 57.9217 30.3908 58.3723C30.8668 58.9561 31.5959 59.2889 32.5023 59.2889C33.4086 59.2889 34.1328 58.9868 34.7454 58.6232V58.6284ZM34.5277 55.8275C34.4922 55.1413 34.2796 54.5781 33.9201 54.1582C33.5403 53.7435 32.9479 53.4414 32.2036 53.4414C31.3782 53.4414 30.7504 53.7435 30.3402 54.2248C29.9959 54.6395 29.7782 55.2233 29.7478 55.8275H34.5277Z" fill="white"/>
<path d="M42.1583 62.3619C42.538 61.9266 42.7203 61.3122 42.7203 60.4929V59.5251C42.0419 60.0935 41.333 60.2778 40.4924 60.2778C39.4393 60.2778 38.6443 59.8784 38.0873 59.2435C37.4442 58.5113 37.1151 57.477 37.1151 56.3608C37.1151 55.2445 37.4138 54.2409 38.0569 53.4934C38.619 52.8584 39.4241 52.459 40.4823 52.459C41.5406 52.459 42.2292 52.8584 42.7102 53.2425H42.7609V52.7611C42.7609 52.6792 42.8267 52.5922 42.9077 52.5922H43.7634C43.8647 52.5922 43.9305 52.6741 43.9305 52.7611V60.3649C43.9305 61.5631 43.6318 62.5001 42.9888 63.135C42.4115 63.7188 41.5355 64.0004 40.4165 64.0004C39.2975 64.0004 38.3556 63.6522 37.6974 63.2016C37.6164 63.1504 37.5809 63.0838 37.6316 63.0019L37.9607 62.3363C38.0114 62.2543 38.0923 62.2185 38.2088 62.3004C38.8165 62.7152 39.5456 63.0173 40.4367 63.0173C41.2267 63.0173 41.8039 62.7817 42.1685 62.367L42.1583 62.3619ZM42.7203 54.3229C42.29 53.9747 41.6672 53.4575 40.6241 53.4575C39.9 53.4575 39.3379 53.7596 38.9734 54.2256C38.5278 54.7735 38.3304 55.5415 38.3304 56.3454C38.3304 57.1954 38.5278 57.9788 38.9582 58.5113C39.3379 58.9772 39.8646 59.264 40.6088 59.264C41.4849 59.264 42.1583 58.9465 42.7203 58.4652V54.3229Z" fill="white"/>
<path d="M52.0574 58.6284C52.1891 58.5464 52.2701 58.5925 52.3056 58.6642L52.6195 59.2787C52.6701 59.3606 52.6347 59.4272 52.5537 59.4937C51.9461 59.9085 50.8727 60.2925 49.7182 60.2925C48.4826 60.2925 47.4599 59.8573 46.7813 59.0738C46.1535 58.3723 45.8092 57.4046 45.8092 56.273C45.8092 55.2079 46.1737 54.2401 46.7965 53.554C47.4193 52.8679 48.3307 52.4531 49.5156 52.4531C50.7005 52.4531 51.6423 52.9344 52.2195 53.6513C52.7613 54.3528 53.06 55.3359 52.9942 56.5187C52.9942 56.6365 52.9132 56.7031 52.7968 56.7031H47.0598C47.1105 57.338 47.3232 57.9217 47.7029 58.3723C48.1788 58.9561 48.908 59.2889 49.8143 59.2889C50.7208 59.2889 51.4448 58.9868 52.0574 58.6232V58.6284ZM51.8398 55.8275C51.8043 55.1413 51.5916 54.5781 51.2321 54.1582C50.8524 53.7435 50.2599 53.4414 49.5156 53.4414C48.6902 53.4414 48.0624 53.7435 47.6523 54.2248C47.308 54.6395 47.0902 55.2233 47.0598 55.8275H51.8398Z" fill="white"/>
<path d="M59.7387 53.5906C60.4476 52.8738 61.4552 52.459 62.5742 52.459C63.6933 52.459 64.7008 52.8738 65.4098 53.5906C66.1035 54.2768 66.5136 55.2394 66.5136 56.3762C66.5136 57.5129 66.1035 58.4754 65.4098 59.1616C64.7008 59.8784 63.6933 60.2932 62.5742 60.2932C61.4552 60.2932 60.4476 59.8784 59.7387 59.1616C59.045 58.4754 58.6349 57.5129 58.6349 56.3762C58.6349 55.2394 59.045 54.2768 59.7387 53.5906ZM60.564 58.414C61.04 58.9619 61.7489 59.2998 62.5742 59.2998C63.3995 59.2998 64.1085 58.967 64.5844 58.414C65.0604 57.8968 65.3287 57.18 65.3287 56.3813C65.3287 55.5825 65.0654 54.8656 64.5844 54.3485C64.1085 53.8006 63.3995 53.4626 62.5742 53.4626C61.7489 53.4626 61.04 53.7955 60.564 54.3485C60.0881 54.8656 59.8197 55.5825 59.8197 56.3813C59.8197 57.18 60.083 57.8968 60.564 58.414Z" fill="white"/>
<path d="M70.1289 50.0726C69.8656 50.3901 69.7846 50.8919 69.7846 51.5217V52.5867H72.0125C72.0936 52.5867 72.1593 52.6687 72.1593 52.7557V53.406C72.1593 53.4879 72.0936 53.5545 72.0125 53.5545H69.7846V59.9754C69.7846 60.0574 69.7187 60.1239 69.6175 60.1239H68.7264C68.6453 60.1239 68.5794 60.0574 68.5794 59.9754V53.5545H67.6225C67.5415 53.5545 67.4554 53.4879 67.4554 53.406V52.7557C67.4554 52.6738 67.5364 52.5867 67.6225 52.5867H68.5794V51.4039C68.5794 50.5386 68.7466 49.7347 69.2377 49.2175C69.6023 48.8488 70.1289 48.6338 70.853 48.6338C71.7594 48.6338 72.5493 48.9359 73.0607 49.3353C73.1416 49.3865 73.1619 49.4837 73.1265 49.5503L72.8277 50.1648C72.7771 50.2672 72.6606 50.2825 72.5645 50.216C72.1037 49.8473 71.6227 49.6681 71.0961 49.6681C70.6505 49.6681 70.3366 49.8012 70.1239 50.0675L70.1289 50.0726Z" fill="white"/>
<path d="M77.5672 54.44C77.5672 51.2398 80.2053 48.6182 83.4358 48.6182C85.0358 48.6182 86.089 49.0688 86.8638 49.5194C86.9802 49.586 87.0106 49.6679 86.965 49.7703L86.57 50.6049C86.5194 50.7227 86.4232 50.7073 86.3371 50.6561C85.6586 50.2721 84.7523 49.8215 83.4003 49.8215C80.9749 49.8215 78.9293 51.9208 78.9293 54.44C78.9293 57.2102 80.9901 59.0945 83.4155 59.0945C84.7523 59.0945 85.7093 58.6593 86.3827 58.2445C86.484 58.178 86.5498 58.1933 86.6156 58.2957L87.0106 59.1611C87.046 59.243 87.0258 59.3096 86.9295 59.3761C86.089 59.8575 85.0308 60.2927 83.4003 60.2927C80.0686 60.2927 77.5621 57.9936 77.5621 54.44H77.5672Z" fill="white"/>
<path d="M89.1878 53.5906C89.8967 52.8738 90.9043 52.459 92.0233 52.459C93.1423 52.459 94.15 52.8738 94.8586 53.5906C95.5524 54.2768 95.9627 55.2394 95.9627 56.3762C95.9627 57.5129 95.5524 58.4754 94.8586 59.1616C94.15 59.8784 93.1423 60.2932 92.0233 60.2932C90.9043 60.2932 89.8967 59.8784 89.1878 59.1616C88.4941 58.4754 88.084 57.5129 88.084 56.3762C88.084 55.2394 88.4941 54.2768 89.1878 53.5906ZM90.0132 58.414C90.4891 58.9619 91.198 59.2998 92.0233 59.2998C92.8486 59.2998 93.5572 58.967 94.0333 58.414C94.5094 57.8968 94.778 57.18 94.778 56.3813C94.778 55.5825 94.515 54.8656 94.0333 54.3485C93.5572 53.8006 92.8486 53.4626 92.0233 53.4626C91.198 53.4626 90.4891 53.7955 90.0132 54.3485C89.5372 54.8656 89.2688 55.5825 89.2688 56.3813C89.2688 57.18 89.5322 57.8968 90.0132 58.414Z" fill="white"/>
<path d="M99.0313 53.4934C99.5278 52.8277 100.267 52.459 101.208 52.459C101.836 52.459 102.429 52.6075 102.889 52.9608C103.254 53.2271 103.517 53.5753 103.679 54.0259C103.862 53.6265 104.155 53.1913 104.667 52.8584C105.112 52.5768 105.654 52.459 106.201 52.459C106.976 52.459 107.7 52.6587 108.232 53.1912C108.707 53.6572 109.021 54.3894 109.021 55.4903V59.9757C109.021 60.0577 108.955 60.1242 108.875 60.1242H107.968C107.887 60.1242 107.801 60.0577 107.801 59.9757V55.7924C107.801 55.0244 107.634 54.4099 107.305 54.0412C106.991 53.6931 106.53 53.5241 105.953 53.5241C105.346 53.5241 104.798 53.7596 104.455 54.3229C104.141 54.8554 104.024 55.5415 104.024 56.3915V59.9757C104.024 60.0577 103.958 60.1242 103.877 60.1242H102.971C102.889 60.1242 102.803 60.0577 102.803 59.9757V55.7924C102.803 55.0244 102.636 54.4099 102.308 54.0412C101.994 53.6931 101.532 53.5241 100.955 53.5241C100.348 53.5241 99.8011 53.7596 99.4565 54.3229C99.1934 54.7735 99.0258 55.4391 99.0258 56.2226V59.9757C99.0258 60.0577 98.96 60.1242 98.8794 60.1242H97.9726C97.8921 60.1242 97.8059 60.0577 97.8059 59.9757V52.756C97.8059 52.6741 97.8865 52.587 97.9726 52.587H98.8137C98.8943 52.587 98.9804 52.669 98.9804 52.756V53.4882H99.0313V53.4934Z" fill="white"/>
<path d="M113.65 52.459C114.935 52.459 116.055 52.8072 116.85 53.5446C117.543 54.1949 117.989 55.1473 117.989 56.3608C117.989 57.5743 117.624 58.4959 117.047 59.1104C116.287 59.9604 115.169 60.2932 114.212 60.2932C113.502 60.2932 113.007 60.2113 112.465 59.9604V63.8314C112.465 63.9134 112.399 63.9799 112.318 63.9799H111.426C111.346 63.9799 111.26 63.9134 111.26 63.8314V52.8738C111.26 52.7714 111.31 52.6894 111.441 52.6587C112.034 52.541 112.859 52.459 113.65 52.459ZM112.459 58.9465C112.956 59.1974 113.401 59.2947 114.089 59.2947C114.717 59.2947 115.477 59.095 116.035 58.5267C116.495 58.0761 116.778 57.3439 116.778 56.3608C116.778 55.4596 116.501 54.7581 115.988 54.2614C115.447 53.7289 114.667 53.4421 113.761 53.4421C113.33 53.4421 112.855 53.4934 112.459 53.5446V58.9465Z" fill="white"/>
<path d="M119.746 52.7607C119.746 52.6788 119.812 52.5918 119.892 52.5918H120.783C120.885 52.5918 120.951 52.6737 120.951 52.7607V56.8315C120.951 57.4971 121.032 57.8965 121.249 58.3011C121.563 58.8336 122.191 59.2176 123.179 59.2176C124.166 59.2176 124.809 58.8489 125.092 58.3164C125.326 57.917 125.392 57.4971 125.392 56.8315V52.7607C125.392 52.6788 125.472 52.5918 125.558 52.5918H126.449C126.531 52.5918 126.597 52.6737 126.597 52.7607V56.9441C126.597 57.9119 126.43 58.511 126.055 59.0794C125.529 59.8628 124.521 60.298 123.183 60.298C121.847 60.298 120.824 59.8628 120.298 59.0794C119.918 58.511 119.756 57.9119 119.756 56.9441V52.7607H119.746Z" fill="white"/>
<path d="M130.257 57.4768C130.257 57.9939 130.323 58.4087 130.505 58.6954C130.718 59.0641 131.083 59.2433 131.675 59.2433C132.121 59.2433 132.552 59.1255 133.028 58.7774C133.143 58.6954 133.225 58.7108 133.275 58.7927L133.574 59.443C133.625 59.5249 133.589 59.5915 133.508 59.6581C132.931 60.0728 132.172 60.293 131.382 60.293C130.491 60.293 129.914 60.0114 129.553 59.5608C129.174 59.0795 129.042 58.378 129.042 57.6253V53.5545H128.167C128.085 53.5545 127.999 53.4879 127.999 53.406V52.7557C127.999 52.6738 128.081 52.5867 128.167 52.5867H129.042V51.1377C129.042 51.0558 129.123 50.9688 129.21 50.9688H130.101C130.181 50.9688 130.267 51.0507 130.267 51.1377V52.5867H132.855C132.936 52.5867 133.022 52.6687 133.022 52.7557V53.406C133.022 53.4879 132.942 53.5545 132.855 53.5545H130.267V57.4716L130.257 57.4768Z" fill="white"/>
<path d="M134.699 49.0078C134.699 48.6085 135.027 48.291 135.422 48.291C135.818 48.291 136.146 48.6085 136.146 49.0078C136.146 49.4072 135.818 49.7401 135.422 49.7401C135.027 49.7401 134.699 49.4226 134.699 49.0078ZM134.997 52.5922H135.888C135.969 52.5922 136.035 52.6741 136.035 52.7611V59.9809C136.035 60.0628 135.969 60.1293 135.888 60.1293H134.997C134.916 60.1293 134.83 60.0628 134.83 59.9809V52.7611C134.83 52.6792 134.911 52.5922 134.997 52.5922Z" fill="white"/>
<path d="M139.539 53.8774C140.05 52.8943 141.038 52.459 142.147 52.459C143.038 52.459 143.777 52.6741 144.308 53.1452C144.886 53.6623 145.199 54.497 145.199 55.6644V59.9809C145.199 60.0628 145.119 60.1293 145.033 60.1293H144.157C144.076 60.1293 143.99 60.0628 143.99 59.9809V55.9307C143.99 55.0961 143.822 54.4304 143.382 54.0105C143.052 53.6931 142.592 53.5292 141.913 53.5292C141.058 53.5292 140.379 53.9132 139.969 54.6813C139.655 55.2804 139.539 55.9972 139.539 56.668V59.986C139.539 60.0679 139.473 60.1345 139.392 60.1345H138.486C138.405 60.1345 138.318 60.0679 138.318 59.986V52.7663C138.318 52.6843 138.4 52.5973 138.486 52.5973H139.326C139.407 52.5973 139.493 52.6792 139.493 52.7663V53.8825H139.544L139.539 53.8774Z" fill="white"/>
<path d="M152.041 62.3619C152.421 61.9266 152.602 61.3122 152.602 60.4929V59.5251C151.924 60.0935 151.215 60.2778 150.374 60.2778C149.321 60.2778 148.527 59.8784 147.97 59.2435C147.326 58.5113 146.997 57.477 146.997 56.3608C146.997 55.2445 147.296 54.2409 147.939 53.4934C148.502 52.8584 149.306 52.459 150.364 52.459C151.423 52.459 152.111 52.8584 152.593 53.2425H152.643V52.7611C152.643 52.6792 152.709 52.5922 152.79 52.5922H153.646C153.747 52.5922 153.813 52.6741 153.813 52.7611V60.3649C153.813 61.5631 153.514 62.5001 152.871 63.135C152.294 63.7188 151.417 64.0004 150.298 64.0004C149.18 64.0004 148.238 63.6522 147.58 63.2016C147.498 63.1504 147.463 63.0838 147.513 63.0019L147.843 62.3363C147.894 62.2543 147.975 62.2185 148.091 62.3004C148.699 62.7152 149.428 63.0173 150.319 63.0173C151.109 63.0173 151.686 62.7817 152.051 62.367L152.041 62.3619ZM152.602 54.3229C152.172 53.9747 151.549 53.4575 150.506 53.4575C149.783 53.4575 149.22 53.7596 148.855 54.2256C148.41 54.7735 148.213 55.5415 148.213 56.3454C148.213 57.1954 148.41 57.9788 148.841 58.5113C149.22 58.9772 149.746 59.264 150.491 59.264C151.367 59.264 152.041 58.9465 152.602 58.4652V54.3229Z" fill="white"/>
<path d="M164.355 53.677H167.621C167.702 53.677 167.768 53.7436 167.768 53.8255V54.6601C167.768 54.742 167.702 54.8291 167.621 54.8291H164.355V58.1164C164.355 58.1983 164.289 58.2854 164.208 58.2854H163.383C163.301 58.2854 163.215 58.2035 163.215 58.1164V54.8291H159.965C159.884 54.8291 159.818 54.7472 159.818 54.6601V53.8255C159.818 53.7436 159.884 53.677 159.965 53.677H163.215V50.3897C163.215 50.3077 163.297 50.2207 163.383 50.2207H164.208C164.289 50.2207 164.355 50.3026 164.355 50.3897V53.677Z" fill="white"/>
<path d="M174.988 48.7715C175.069 48.7715 175.156 48.8534 175.156 48.9405V59.9801C175.156 60.062 175.074 60.1285 174.988 60.1285H173.98C173.9 60.1285 173.834 60.062 173.834 59.9801V48.9405C173.834 48.8586 173.9 48.7715 173.98 48.7715H174.988Z" fill="white"/>
<path d="M178.831 53.8774C179.343 52.8943 180.33 52.459 181.439 52.459C182.33 52.459 183.069 52.6741 183.601 53.1452C184.178 53.6623 184.492 54.497 184.492 55.6644V59.9809C184.492 60.0628 184.412 60.1293 184.325 60.1293H183.449C183.369 60.1293 183.282 60.0628 183.282 59.9809V55.9307C183.282 55.0961 183.115 54.4304 182.675 54.0105C182.345 53.6931 181.885 53.5292 181.206 53.5292C180.35 53.5292 179.672 53.9132 179.262 54.6813C178.948 55.2804 178.831 55.9972 178.831 56.668V59.986C178.831 60.0679 178.765 60.1345 178.684 60.1345H177.778C177.697 60.1345 177.611 60.0679 177.611 59.986V52.7663C177.611 52.6843 177.692 52.5973 177.778 52.5973H178.619C178.699 52.5973 178.785 52.6792 178.785 52.7663V53.8825H178.836L178.831 53.8774Z" fill="white"/>
<path d="M188.503 50.0726C188.239 50.3901 188.158 50.8919 188.158 51.5217V52.5867H190.386C190.467 52.5867 190.533 52.6687 190.533 52.7557V53.406C190.533 53.4879 190.467 53.5545 190.386 53.5545H188.158V59.9754C188.158 60.0574 188.092 60.1239 187.991 60.1239H187.099C187.019 60.1239 186.953 60.0574 186.953 59.9754V53.5545H185.996C185.915 53.5545 185.829 53.4879 185.829 53.406V52.7557C185.829 52.6738 185.91 52.5867 185.996 52.5867H186.953V51.4039C186.953 50.5386 187.12 49.7347 187.612 49.2175C187.976 48.8488 188.503 48.6338 189.226 48.6338C190.133 48.6338 190.923 48.9359 191.434 49.3353C191.515 49.3865 191.535 49.4837 191.5 49.5503L191.201 50.1648C191.151 50.2672 191.034 50.2825 190.938 50.216C190.477 49.8473 189.996 49.6681 189.47 49.6681C189.024 49.6681 188.71 49.8012 188.497 50.0675L188.503 50.0726Z" fill="white"/>
<path d="M192.472 53.5906C193.181 52.8738 194.189 52.459 195.308 52.459C196.427 52.459 197.435 52.8738 198.143 53.5906C198.837 54.2768 199.247 55.2394 199.247 56.3762C199.247 57.5129 198.837 58.4754 198.143 59.1616C197.435 59.8784 196.427 60.2932 195.308 60.2932C194.189 60.2932 193.181 59.8784 192.472 59.1616C191.779 58.4754 191.369 57.5129 191.369 56.3762C191.369 55.2394 191.779 54.2768 192.472 53.5906ZM193.292 58.414C193.769 58.9619 194.477 59.2998 195.302 59.2998C196.128 59.2998 196.837 58.967 197.313 58.414C197.789 57.8968 198.057 57.18 198.057 56.3813C198.057 55.5825 197.794 54.8656 197.313 54.3485C196.837 53.8006 196.128 53.4626 195.302 53.4626C194.477 53.4626 193.769 53.7955 193.292 54.3485C192.816 54.8656 192.548 55.5825 192.548 56.3813C192.548 57.18 192.812 57.8968 193.292 58.414Z" fill="white"/>
<path d="M202.873 54.2401C202.462 54.8085 202.31 55.7097 202.31 56.4419V59.975C202.31 60.057 202.245 60.1235 202.164 60.1235H201.257C201.177 60.1235 201.091 60.057 201.091 59.975V52.7552C201.091 52.6733 201.171 52.5862 201.257 52.5862H202.097C202.179 52.5862 202.265 52.6682 202.265 52.7552V53.6718H202.316C202.696 52.873 203.419 52.4531 204.412 52.4531C205.136 52.4531 205.714 52.6682 206.194 53.0522C206.275 53.1188 206.295 53.1853 206.245 53.2673L205.88 54.02C205.829 54.1019 205.734 54.1224 205.632 54.0558C205.237 53.7742 204.792 53.5745 204.215 53.5745C203.673 53.5745 203.207 53.7895 202.877 54.2401H202.873Z" fill="white"/>
<path d="M208.711 53.4934C209.207 52.8277 209.947 52.459 210.889 52.459C211.516 52.459 212.108 52.6075 212.569 52.9608C212.934 53.2271 213.197 53.5753 213.359 54.0259C213.541 53.6265 213.835 53.1913 214.346 52.8584C214.792 52.5768 215.334 52.459 215.881 52.459C216.655 52.459 217.38 52.6587 217.911 53.1912C218.387 53.6572 218.701 54.3894 218.701 55.4903V59.9757C218.701 60.0577 218.635 60.1242 218.554 60.1242H217.647C217.567 60.1242 217.481 60.0577 217.481 59.9757V55.7924C217.481 55.0244 217.314 54.4099 216.984 54.0412C216.67 53.6931 216.21 53.5241 215.633 53.5241C215.025 53.5241 214.478 53.7596 214.134 54.3229C213.82 54.8554 213.703 55.5415 213.703 56.3915V59.9757C213.703 60.0577 213.638 60.1242 213.556 60.1242H212.65C212.569 60.1242 212.483 60.0577 212.483 59.9757V55.7924C212.483 55.0244 212.316 54.4099 211.987 54.0412C211.673 53.6931 211.212 53.5241 210.635 53.5241C210.027 53.5241 209.481 53.7596 209.136 54.3229C208.873 54.7735 208.705 55.4391 208.705 56.2226V59.9757C208.705 60.0577 208.64 60.1242 208.559 60.1242H207.652C207.572 60.1242 207.485 60.0577 207.485 59.9757V52.756C207.485 52.6741 207.566 52.587 207.652 52.587H208.493C208.574 52.587 208.66 52.669 208.66 52.756V53.4882H208.711V53.4934Z" fill="white"/>
<path d="M221.278 54.1281C221.162 54.1947 221.081 54.1639 221.046 54.0769L220.767 53.4624C220.716 53.36 220.732 53.3139 220.848 53.2474C221.607 52.7302 222.66 52.4639 223.684 52.4639C224.392 52.4639 225.269 52.5971 225.861 53.2832C226.24 53.7185 226.468 54.3482 226.468 55.3159V59.9858C226.468 60.0677 226.402 60.1343 226.322 60.1343H225.547C225.466 60.1343 225.4 60.0677 225.4 59.9858V59.7195H225.334C224.575 60.1701 223.916 60.3032 223.091 60.3032C222.412 60.3032 221.754 60.1343 221.243 59.7707C220.747 59.402 220.402 58.8542 220.402 58.0861C220.402 57.0518 221.03 56.468 221.937 56.1198C222.944 55.7358 224.276 55.6385 225.269 55.5873V55.3364C225.269 54.6708 225.152 54.2714 224.889 53.954C224.559 53.57 224.033 53.4522 223.537 53.4522C222.595 53.4522 221.906 53.7697 221.278 54.1383V54.1281ZM225.269 58.8439V56.4936C224.493 56.5295 223.572 56.5756 222.812 56.7957C222.104 56.9801 221.557 57.3436 221.557 58.0144C221.557 58.9463 222.514 59.3304 223.436 59.3304C224.064 59.3304 224.691 59.146 225.263 58.849L225.269 58.8439Z" fill="white"/>
<path d="M230.013 57.4768C230.013 57.9939 230.079 58.4087 230.261 58.6954C230.473 59.0641 230.838 59.2433 231.431 59.2433C231.876 59.2433 232.306 59.1255 232.782 58.7774C232.899 58.6954 232.98 58.7108 233.031 58.7927L233.329 59.443C233.38 59.5249 233.345 59.5915 233.263 59.6581C232.686 60.0728 231.926 60.293 231.136 60.293C230.245 60.293 229.668 60.0114 229.309 59.5608C228.929 59.0795 228.798 58.378 228.798 57.6253V53.5545H227.921C227.841 53.5545 227.755 53.4879 227.755 53.406V52.7557C227.755 52.6738 227.835 52.5867 227.921 52.5867H228.798V51.1377C228.798 51.0558 228.878 50.9688 228.964 50.9688H229.855C229.937 50.9688 230.023 51.0507 230.023 51.1377V52.5867H232.61C232.692 52.5867 232.778 52.6687 232.778 52.7557V53.406C232.778 53.4879 232.696 53.5545 232.61 53.5545H230.023V57.4716L230.013 57.4768Z" fill="white"/>
<path d="M234.453 49.0078C234.453 48.6085 234.782 48.291 235.178 48.291C235.572 48.291 235.902 48.6085 235.902 49.0078C235.902 49.4072 235.572 49.7401 235.178 49.7401C234.782 49.7401 234.453 49.4226 234.453 49.0078ZM234.752 52.5922H235.643C235.724 52.5922 235.79 52.6741 235.79 52.7611V59.9809C235.79 60.0628 235.724 60.1293 235.643 60.1293H234.752C234.671 60.1293 234.585 60.0628 234.585 59.9809V52.7611C234.585 52.6792 234.666 52.5922 234.752 52.5922Z" fill="white"/>
<path d="M238.711 53.5906C239.421 52.8738 240.429 52.459 241.548 52.459C242.666 52.459 243.674 52.8738 244.383 53.5906C245.077 54.2768 245.487 55.2394 245.487 56.3762C245.487 57.5129 245.077 58.4754 244.383 59.1616C243.674 59.8784 242.666 60.2932 241.548 60.2932C240.429 60.2932 239.421 59.8784 238.711 59.1616C238.018 58.4754 237.608 57.5129 237.608 56.3762C237.608 55.2394 238.018 54.2768 238.711 53.5906ZM239.538 58.414C240.013 58.9619 240.722 59.2998 241.548 59.2998C242.373 59.2998 243.081 58.967 243.557 58.414C244.034 57.8968 244.302 57.18 244.302 56.3813C244.302 55.5825 244.038 54.8656 243.557 54.3485C243.081 53.8006 242.373 53.4626 241.548 53.4626C240.722 53.4626 240.013 53.7955 239.538 54.3485C239.061 54.8656 238.793 55.5825 238.793 56.3813C238.793 57.18 239.056 57.8968 239.538 58.414Z" fill="white"/>
<path d="M248.556 53.8774C249.067 52.8943 250.054 52.459 251.163 52.459C252.054 52.459 252.793 52.6741 253.325 53.1452C253.902 53.6623 254.216 54.497 254.216 55.6644V59.9809C254.216 60.0628 254.135 60.1293 254.049 60.1293H253.173C253.092 60.1293 253.006 60.0628 253.006 59.9809V55.9307C253.006 55.0961 252.839 54.4304 252.399 54.0105C252.069 53.6931 251.609 53.5292 250.93 53.5292C250.075 53.5292 249.396 53.9132 248.985 54.6813C248.671 55.2804 248.556 55.9972 248.556 56.668V59.986C248.556 60.0679 248.489 60.1345 248.408 60.1345H247.502C247.421 60.1345 247.335 60.0679 247.335 59.986V52.7663C247.335 52.6843 247.416 52.5973 247.502 52.5973H248.343C248.423 52.5973 248.509 52.6792 248.509 52.7663V53.8825H248.56L248.556 53.8774Z" fill="white"/>
<path d="M260.226 59.2123C260.125 59.1611 260.095 59.0792 260.146 58.9767L260.555 58.1268C260.591 58.0448 260.657 58.009 260.768 58.0756C261.462 58.5261 262.485 59.1611 263.983 59.1611C264.773 59.1611 265.401 58.9614 265.832 58.6439C266.328 58.2599 266.576 57.6915 266.576 57.0412C266.576 56.1759 265.968 55.6587 265.143 55.3054C264.171 54.8702 263.067 54.7217 261.893 54.1379C260.92 53.6566 260.212 52.9397 260.212 51.6699C260.212 50.7687 260.54 50.0212 261.183 49.4835C261.862 48.9357 262.864 48.6182 264.201 48.6182C265.538 48.6182 266.707 48.9869 267.467 49.417C267.569 49.4836 267.584 49.5501 267.533 49.6525L267.138 50.4871C267.087 50.5895 267.007 50.6203 266.906 50.5537C266.079 50.0724 265.077 49.7703 264.135 49.7703C263.194 49.7703 262.536 49.9854 262.125 50.3694C261.781 50.6868 261.599 51.1016 261.599 51.6187C261.599 52.4533 262.242 52.9193 263.229 53.2879C264.348 53.7027 265.502 53.8563 266.545 54.4708C267.321 54.9214 268.014 55.6894 268.014 56.9235C268.014 58.0243 267.569 58.8743 266.83 59.4581C266.136 60.006 265.148 60.2927 264.009 60.2927C262.262 60.2927 261.027 59.7243 260.232 59.2072L260.226 59.2123Z" fill="white"/>
<path d="M275.28 58.8134C275.397 58.7315 275.493 58.7622 275.528 58.8492L275.857 59.4637C275.908 59.5456 275.857 59.6122 275.776 59.6788C275.184 60.0781 274.323 60.2932 273.452 60.2932C272.196 60.2932 271.158 59.8938 270.47 59.1616C269.811 58.4959 269.447 57.5282 269.447 56.3762C269.447 55.3777 269.761 54.5277 270.287 53.8928C271.047 52.9608 272.202 52.459 273.473 52.459C274.348 52.459 275.154 52.7099 275.746 53.1247C275.827 53.1912 275.877 53.2578 275.827 53.3397L275.483 53.9747C275.432 54.0771 275.351 54.0924 275.235 54.0259C274.657 53.6572 274.095 53.5087 273.473 53.5087C272.617 53.5087 271.842 53.8416 271.33 54.4611C270.921 54.9424 270.673 55.5927 270.673 56.3813C270.673 57.2466 270.951 57.9634 271.432 58.4806C271.913 58.9977 272.617 59.2794 273.493 59.2794C274.12 59.2794 274.713 59.1616 275.29 58.8134H275.28Z" fill="white"/>
<path d="M277.336 49.0078C277.336 48.6085 277.665 48.291 278.06 48.291C278.455 48.291 278.784 48.6085 278.784 49.0078C278.784 49.4072 278.455 49.7401 278.06 49.7401C277.665 49.7401 277.336 49.4226 277.336 49.0078ZM277.634 52.5922H278.525C278.607 52.5922 278.673 52.6741 278.673 52.7611V59.9809C278.673 60.0628 278.607 60.1293 278.525 60.1293H277.634C277.554 60.1293 277.468 60.0628 277.468 59.9809V52.7611C277.468 52.6792 277.548 52.5922 277.634 52.5922Z" fill="white"/>
<path d="M286.769 58.6284C286.901 58.5464 286.982 58.5925 287.017 58.6642L287.331 59.2787C287.382 59.3606 287.346 59.4272 287.265 59.4937C286.658 59.9085 285.584 60.2925 284.429 60.2925C283.195 60.2925 282.171 59.8573 281.493 59.0738C280.865 58.3723 280.521 57.4046 280.521 56.273C280.521 55.2079 280.885 54.2401 281.508 53.554C282.131 52.8679 283.043 52.4531 284.227 52.4531C285.412 52.4531 286.354 52.9344 286.931 53.6513C287.473 54.3528 287.771 55.3359 287.705 56.5187C287.705 56.6365 287.625 56.7031 287.508 56.7031H281.772C281.822 57.338 282.035 57.9217 282.415 58.3723C282.891 58.9561 283.62 59.2889 284.526 59.2889C285.432 59.2889 286.157 58.9868 286.769 58.6232V58.6284ZM286.556 55.8275C286.521 55.1413 286.309 54.5781 285.948 54.1582C285.569 53.7435 284.977 53.4414 284.232 53.4414C283.407 53.4414 282.779 53.7435 282.369 54.2248C282.025 54.6395 281.807 55.2233 281.776 55.8275H286.556Z" fill="white"/>
<path d="M290.774 53.8774C291.285 52.8943 292.273 52.459 293.381 52.459C294.273 52.459 295.013 52.6741 295.544 53.1452C296.121 53.6623 296.435 54.497 296.435 55.6644V59.9809C296.435 60.0628 296.354 60.1293 296.268 60.1293H295.392C295.311 60.1293 295.225 60.0628 295.225 59.9809V55.9307C295.225 55.0961 295.058 54.4304 294.617 54.0105C294.288 53.6931 293.827 53.5292 293.149 53.5292C292.293 53.5292 291.615 53.9132 291.205 54.6813C290.891 55.2804 290.774 55.9972 290.774 56.668V59.986C290.774 60.0679 290.708 60.1345 290.628 60.1345H289.721C289.64 60.1345 289.554 60.0679 289.554 59.986V52.7663C289.554 52.6843 289.635 52.5973 289.721 52.5973H290.562C290.643 52.5973 290.729 52.6792 290.729 52.7663V53.8825H290.78L290.774 53.8774Z" fill="white"/>
<path d="M304.041 58.8134C304.157 58.7315 304.253 58.7622 304.288 58.8492L304.618 59.4637C304.668 59.5456 304.618 59.6122 304.536 59.6788C303.944 60.0781 303.083 60.2932 302.212 60.2932C300.956 60.2932 299.919 59.8938 299.23 59.1616C298.572 58.4959 298.207 57.5282 298.207 56.3762C298.207 55.3777 298.521 54.5277 299.048 53.8928C299.807 52.9608 300.962 52.459 302.233 52.459C303.109 52.459 303.914 52.7099 304.507 53.1247C304.587 53.1912 304.638 53.2578 304.587 53.3397L304.243 53.9747C304.193 54.0771 304.111 54.0924 303.994 54.0259C303.417 53.6572 302.855 53.5087 302.233 53.5087C301.377 53.5087 300.603 53.8416 300.091 54.4611C299.681 54.9424 299.433 55.5927 299.433 56.3813C299.433 57.2466 299.711 57.9634 300.192 58.4806C300.673 58.9977 301.377 59.2794 302.253 59.2794C302.881 59.2794 303.473 59.1616 304.051 58.8134H304.041Z" fill="white"/>
<path d="M311.823 58.6284C311.955 58.5464 312.035 58.5925 312.071 58.6642L312.385 59.2787C312.435 59.3606 312.4 59.4272 312.32 59.4937C311.712 59.9085 310.639 60.2925 309.483 60.2925C308.248 60.2925 307.225 59.8573 306.547 59.0738C305.919 58.3723 305.575 57.4046 305.575 56.273C305.575 55.2079 305.94 54.2401 306.562 53.554C307.185 52.8679 308.096 52.4531 309.282 52.4531C310.466 52.4531 311.408 52.9344 311.985 53.6513C312.527 54.3528 312.825 55.3359 312.76 56.5187C312.76 56.6365 312.679 56.7031 312.562 56.7031H306.825C306.876 57.338 307.089 57.9217 307.469 58.3723C307.944 58.9561 308.674 59.2889 309.58 59.2889C310.487 59.2889 311.21 58.9868 311.823 58.6232V58.6284ZM311.61 55.8275C311.575 55.1413 311.362 54.5781 311.003 54.1582C310.623 53.7435 310.031 53.4414 309.286 53.4414C308.461 53.4414 307.833 53.7435 307.423 54.2248C307.079 54.6395 306.861 55.2233 306.831 55.8275H311.61Z" fill="white"/>
</g>
<defs>
<clipPath id="clip0_302_36322">
<rect width="314" height="64" fill="white"/>
</clipPath>
</defs>
</svg>
