<svg width="225" height="64" viewBox="0 0 225 64" fill="none" xmlns="http://www.w3.org/2000/svg">
<path d="M54.0984 54.1534H63.9344V24.6149H54.0984V54.1534ZM68.8525 19.6919H93.4426V9.8457H68.8525V19.6919ZM54.0984 9.8457H63.9344V19.6919H54.0984V9.8457ZM39.3443 54.1534H49.1803V9.8457H39.3443V54.1534ZM24.5902 44.3072H34.4262V9.8457H24.5902V44.3072ZM9.83606 54.1534H19.6721V9.8457H9.83606V54.1534ZM68.8525 54.1534H78.6885V24.6149H68.8525V54.1534ZM106.787 9.8457L108.523 16.0254C108.73 16.8172 108.936 17.609 109.074 18.2632C109.16 18.6419 109.228 19.0034 109.297 19.3477H109.332C109.4 19.0034 109.469 18.6419 109.555 18.2632C109.693 17.609 109.865 16.8172 110.088 16.0254L111.825 9.8457H115.385V22.1534H113.063V15.0959C113.063 14.5967 113.063 13.977 113.115 13.4434C113.132 13.1507 113.149 12.8408 113.166 12.5482H113.132C113.08 12.8408 113.012 13.1163 112.96 13.3917C112.84 13.8737 112.719 14.4245 112.599 14.8893L110.484 22.1534H108.093L106.03 14.8893C105.892 14.4245 105.789 13.8737 105.669 13.3917C105.617 13.1162 105.548 12.8408 105.497 12.5482H105.462C105.48 12.8408 105.497 13.1507 105.514 13.4434C105.531 13.977 105.566 14.5967 105.566 15.0959V22.1534H103.279V9.8457H106.787H106.787ZM122.263 21.1722H122.229C122.005 21.5165 121.73 21.8091 121.334 22.0157C120.922 22.2223 120.389 22.36 119.632 22.36C117.809 22.36 116.554 21.4304 116.554 19.6575C116.554 18.6935 116.932 18.0394 117.586 17.609C118.239 17.1787 119.099 16.9549 120.096 16.8172C121.575 16.6106 122.229 16.4901 122.229 15.8188C122.229 15.1647 121.747 14.7688 120.75 14.7688C119.649 14.7688 119.116 15.1475 119.047 16.0082H116.967C116.984 15.2164 117.311 14.5106 117.93 13.977C118.549 13.4434 119.477 13.0991 120.767 13.0991C123.415 13.0991 124.481 14.2696 124.481 16.3524V20.8451C124.481 21.5165 124.585 21.9124 124.791 22.0673V22.1534H122.538C122.401 21.964 122.315 21.5681 122.263 21.1722ZM121.747 20.1911C122.091 19.8812 122.28 19.4681 122.28 19.0378V17.7123C121.867 17.9705 121.248 18.091 120.647 18.2287C119.408 18.5042 118.824 18.7795 118.824 19.6058C118.824 20.4321 119.374 20.7247 120.199 20.7247C120.87 20.7247 121.386 20.5181 121.747 20.1911H121.747ZM125.306 19.2959H127.473C127.628 20.3288 128.333 20.7591 129.399 20.7591C130.431 20.7591 131.016 20.3632 131.016 19.7435C131.016 19.3303 130.723 19.0893 130.311 18.9344C129.881 18.7795 129.296 18.6935 128.694 18.573C127.886 18.418 127.129 18.2459 126.545 17.85C125.943 17.4541 125.564 16.8688 125.564 15.9048C125.564 14.9408 125.943 14.2523 126.613 13.7704C127.267 13.3056 128.144 13.0818 129.158 13.0818C131.514 13.0818 132.752 14.2007 132.942 16.0082H130.826C130.706 15.0442 130.139 14.7171 129.124 14.7171C128.195 14.7171 127.611 15.0442 127.611 15.6983C127.611 16.0943 127.903 16.2836 128.367 16.4213C128.815 16.5762 129.416 16.6451 130.035 16.7828C130.775 16.9377 131.549 17.1099 132.151 17.5058C132.752 17.9189 133.148 18.5386 133.148 19.5714C133.148 20.4665 132.77 21.1722 132.116 21.6542C131.445 22.1362 130.534 22.4116 129.434 22.4116C126.854 22.4116 125.444 21.1895 125.306 19.2959ZM133.663 19.2959H135.83C135.985 20.3288 136.69 20.7591 137.756 20.7591C138.788 20.7591 139.373 20.3632 139.373 19.7435C139.373 19.3303 139.08 19.0893 138.667 18.9344C138.238 18.7795 137.653 18.6935 137.051 18.573C136.243 18.418 135.486 18.2459 134.902 17.85C134.3 17.4541 133.921 16.8688 133.921 15.9048C133.921 14.9408 134.3 14.2523 134.97 13.7704C135.624 13.3056 136.501 13.0818 137.515 13.0818C139.871 13.0818 141.109 14.2007 141.298 16.0082H139.183C139.063 15.0442 138.495 14.7171 137.481 14.7171C136.552 14.7171 135.968 15.0442 135.968 15.6983C135.968 16.0943 136.26 16.2836 136.724 16.4213C137.171 16.5762 137.773 16.6451 138.392 16.7828C139.132 16.9377 139.906 17.1099 140.507 17.5058C141.109 17.9189 141.505 18.5386 141.505 19.5714C141.505 20.4665 141.126 21.1722 140.473 21.6542C139.802 22.1362 138.891 22.4116 137.79 22.4116C135.211 22.4116 133.801 21.1895 133.663 19.2959ZM147.85 21.1722H147.815C147.592 21.5165 147.317 21.8091 146.921 22.0157C146.508 22.2223 145.975 22.36 145.219 22.36C143.396 22.36 142.141 21.4304 142.141 19.6575C142.141 18.6935 142.519 18.0394 143.173 17.609C143.826 17.1787 144.686 16.9549 145.683 16.8172C147.162 16.6106 147.816 16.4901 147.816 15.8188C147.816 15.1647 147.334 14.7688 146.337 14.7688C145.236 14.7688 144.703 15.1475 144.634 16.0082H142.554C142.571 15.2164 142.898 14.5106 143.517 13.977C144.136 13.4434 145.064 13.0991 146.354 13.0991C149.002 13.0991 150.068 14.2696 150.068 16.3524V20.8451C150.068 21.5165 150.171 21.9124 150.378 22.0673V22.1534H148.125C147.988 21.964 147.901 21.5681 147.85 21.1722ZM147.334 20.1911C147.678 19.8812 147.867 19.4681 147.867 19.0378V17.7123C147.454 17.9705 146.835 18.091 146.233 18.2287C144.995 18.5042 144.411 18.7795 144.411 19.6058C144.411 20.4321 144.961 20.7247 145.786 20.7247C146.457 20.7247 146.973 20.5181 147.334 20.1911ZM152.235 21.0517C151.444 20.2255 151.014 19.0549 151.014 17.7467C151.014 16.4386 151.444 15.268 152.217 14.4245C152.974 13.5983 154.057 13.0818 155.416 13.0818C156.568 13.0818 157.479 13.4261 158.167 13.977C158.838 14.545 159.268 15.3541 159.423 16.318H157.136C156.981 15.5262 156.396 14.9581 155.519 14.9581C154.092 14.9581 153.387 16.0082 153.387 17.7467C153.387 19.4337 154.04 20.5354 155.485 20.5354C156.448 20.5354 157.101 20.0534 157.256 19.0378H159.509C159.44 19.9845 159.027 20.8107 158.356 21.4132C157.669 22.0329 156.706 22.4116 155.536 22.4116C154.126 22.4116 153.026 21.8952 152.235 21.0517ZM162.81 14.4762C163.464 13.5294 164.151 13.0818 165.372 13.0818C166.301 13.0818 167.04 13.4261 167.573 14.0114C168.106 14.6138 168.416 15.4229 168.416 16.3868V22.1533H166.077V16.7311C166.077 15.7671 165.544 15.113 164.547 15.113C163.515 15.113 162.759 15.922 162.759 17.1442V22.1533H160.42V9.8457H162.759V14.4762H162.81ZM175.329 21.1206H175.277C174.675 21.9296 173.987 22.3944 172.749 22.3944C170.772 22.3944 169.688 21.1722 169.688 19.2099V13.3229H172.01V18.814C172.01 19.8468 172.457 20.4148 173.472 20.4148C174.572 20.4148 175.243 19.5885 175.243 18.418V13.3228H177.581V22.1533H175.329V21.1205V21.1206ZM178.441 19.2959H180.608C180.763 20.3288 181.468 20.7591 182.534 20.7591C183.566 20.7591 184.15 20.3632 184.15 19.7435C184.15 19.3303 183.858 19.0893 183.445 18.9344C183.015 18.7795 182.431 18.6935 181.829 18.573C181.021 18.418 180.264 18.2459 179.679 17.85C179.077 17.4541 178.699 16.8688 178.699 15.9048C178.699 14.9408 179.077 14.2523 179.748 13.7704C180.402 13.3056 181.279 13.0818 182.293 13.0818C184.649 13.0818 185.887 14.2007 186.076 16.0082H183.961C183.841 15.0442 183.273 14.7171 182.259 14.7171C181.33 14.7171 180.745 15.0442 180.745 15.6983C180.745 16.0943 181.038 16.2836 181.502 16.4213C181.949 16.5762 182.551 16.6451 183.17 16.7828C183.91 16.9377 184.683 17.1099 185.285 17.5058C185.887 17.9189 186.283 18.5386 186.283 19.5714C186.283 20.4665 185.904 21.1722 185.251 21.6542C184.58 22.1362 183.669 22.4116 182.568 22.4116C179.989 22.4116 178.579 21.1895 178.441 19.2959ZM188.071 21.0517C187.28 20.2255 186.884 19.0378 186.884 17.7295C186.884 16.4213 187.331 15.2507 188.105 14.4245C188.862 13.5983 189.945 13.0818 191.235 13.0818C192.662 13.0818 193.728 13.6155 194.467 14.5622C195.207 15.509 195.585 16.8171 195.585 18.4008H189.188C189.377 19.7779 190.1 20.6042 191.441 20.6042C192.369 20.6042 192.885 20.191 193.143 19.5197H195.448C195.293 20.3115 194.863 21.0173 194.192 21.5509C193.504 22.0845 192.593 22.4116 191.458 22.4116C189.979 22.4116 188.861 21.8951 188.07 21.0517L188.071 21.0517ZM189.223 16.7828H193.143C193.075 15.6467 192.352 14.8893 191.269 14.8893C190.031 14.8893 189.429 15.6123 189.223 16.7828ZM197.098 13.3229V10.5687H199.385V13.3229H200.899V14.9581H199.385V19.5541C199.385 20.2255 199.729 20.432 200.262 20.432H200.71C200.796 20.432 200.864 20.432 200.95 20.4148V22.1362C200.83 22.1534 200.71 22.1534 200.572 22.1534C200.314 22.1706 199.953 22.1706 199.489 22.1706C198.921 22.1706 198.336 22.0674 197.872 21.7403C197.408 21.4132 197.098 20.8796 197.098 20.0533V14.9581H195.877V13.3229H197.098ZM202.532 13.3229V10.5687H204.819V13.3229H206.332V14.9581H204.819V19.5541C204.819 20.2255 205.163 20.432 205.696 20.432H206.143C206.229 20.432 206.298 20.432 206.384 20.4148V22.1362C206.264 22.1534 206.143 22.1534 206.006 22.1534C205.748 22.1706 205.387 22.1706 204.922 22.1706C204.355 22.1706 203.77 22.0674 203.306 21.7403C202.842 21.4132 202.532 20.8796 202.532 20.0533V14.9581H201.311V13.3229H202.532ZM206.968 19.2959H209.135C209.29 20.3288 209.995 20.7591 211.061 20.7591C212.093 20.7591 212.677 20.3632 212.677 19.7435C212.677 19.3303 212.385 19.0893 211.972 18.9344C211.542 18.7795 210.958 18.6935 210.356 18.573C209.548 18.418 208.791 18.2459 208.206 17.85C207.605 17.4541 207.226 16.8688 207.226 15.9048C207.226 14.9408 207.605 14.2523 208.275 13.7704C208.929 13.3056 209.806 13.0818 210.82 13.0818C213.176 13.0818 214.414 14.2007 214.603 16.0082H212.488C212.368 15.0442 211.8 14.7171 210.786 14.7171C209.857 14.7171 209.273 15.0442 209.273 15.6983C209.273 16.0943 209.565 16.2836 210.029 16.4213C210.476 16.5762 211.078 16.6451 211.697 16.7828C212.437 16.9377 213.21 17.1099 213.812 17.5058C214.414 17.9189 214.81 18.5386 214.81 19.5714C214.81 20.4665 214.431 21.1722 213.778 21.6542C213.107 22.1362 212.196 22.4116 211.095 22.4116C208.516 22.4116 207.106 21.1895 206.968 19.2959ZM105.772 25.8457V38.1534H103.279V25.8457H105.772ZM109.727 30.5278C110.329 29.5639 111.12 29.0818 112.341 29.0818C113.269 29.0818 114.009 29.4261 114.542 30.0114C115.075 30.6138 115.384 31.4229 115.384 32.3868V38.1533H113.046V32.7311C113.046 31.7671 112.513 31.113 111.515 31.113C110.484 31.113 109.727 31.922 109.727 33.1442V38.1533H107.388V29.3228H109.675V30.5277H109.727V30.5278ZM116.175 35.2959H118.342C118.497 36.3288 119.202 36.7591 120.268 36.7591C121.3 36.7591 121.885 36.3632 121.885 35.7435C121.885 35.3303 121.592 35.0893 121.179 34.9344C120.75 34.7795 120.165 34.6935 119.563 34.573C118.755 34.418 117.998 34.2459 117.414 33.85C116.812 33.4541 116.433 32.8688 116.433 31.9048C116.433 30.9408 116.812 30.2524 117.482 29.7704C118.136 29.3056 119.013 29.0818 120.027 29.0818C122.383 29.0818 123.621 30.2007 123.81 32.0082H121.695C121.575 31.0442 121.007 30.7172 119.993 30.7172C119.064 30.7172 118.48 31.0442 118.48 31.6983C118.48 32.0943 118.772 32.2836 119.236 32.4213C119.683 32.5762 120.285 32.6451 120.904 32.7828C121.644 32.9377 122.418 33.1099 123.019 33.5058C123.621 33.9189 124.017 34.5386 124.017 35.5714C124.017 36.4665 123.638 37.1722 122.985 37.6542C122.314 38.1362 121.403 38.4116 120.302 38.4116C117.723 38.4116 116.313 37.1895 116.175 35.2959ZM125.495 29.3229V26.5687H127.783V29.3229H129.296V30.9581H127.783V35.5541C127.783 36.2255 128.126 36.432 128.66 36.432H129.107C129.193 36.432 129.261 36.432 129.347 36.4148V38.1362C129.227 38.1534 129.107 38.1534 128.969 38.1534C128.711 38.1706 128.35 38.1706 127.886 38.1706C127.318 38.1706 126.734 38.0674 126.269 37.7403C125.805 37.4132 125.495 36.8796 125.495 36.0533V30.9581H124.274V29.3229H125.495ZM132.735 26.1728V28.2728H130.396V26.1728H132.735ZM132.735 29.3229V38.1534H130.396V29.3229H132.735ZM134.85 29.3229V26.5687H137.137V29.3229H138.65V30.9581H137.137V35.5541C137.137 36.2255 137.481 36.432 138.014 36.432H138.461C138.547 36.432 138.616 36.432 138.702 36.4148V38.1362C138.581 38.1534 138.461 38.1534 138.323 38.1534C138.066 38.1706 137.704 38.1706 137.24 38.1706C136.673 38.1706 136.088 38.0674 135.624 37.7403C135.159 37.4132 134.85 36.8796 134.85 36.0533V30.9581H133.629V29.3229H134.85H134.85ZM145.322 37.1206H145.27C144.668 37.9296 143.981 38.3944 142.743 38.3944C140.765 38.3944 139.682 37.1722 139.682 35.2099V29.3229H142.003V34.814C142.003 35.8468 142.45 36.4148 143.465 36.4148C144.565 36.4148 145.236 35.5885 145.236 34.418V29.3228H147.575V38.1533H145.322V37.1205L145.322 37.1206ZM149.69 29.3229V26.5687H151.977V29.3229H153.49V30.9581H151.977V35.5541C151.977 36.2255 152.321 36.432 152.854 36.432H153.301C153.387 36.432 153.456 36.432 153.542 36.4148V38.1362C153.421 38.1534 153.301 38.1534 153.163 38.1534C152.905 38.1706 152.544 38.1706 152.08 38.1706C151.513 38.1706 150.928 38.0674 150.464 37.7403C149.999 37.4132 149.69 36.8796 149.69 36.0533V30.9581H148.469V29.3229H149.69H149.69ZM155.261 37.0517C154.47 36.2255 154.075 35.0378 154.075 33.7295C154.075 32.4213 154.522 31.2508 155.296 30.4245C156.052 29.5983 157.136 29.0818 158.425 29.0818C159.853 29.0818 160.919 29.6155 161.658 30.5622C162.397 31.509 162.776 32.8172 162.776 34.4008H156.379C156.568 35.778 157.29 36.6042 158.632 36.6042C159.56 36.6042 160.076 36.191 160.334 35.5197H162.638C162.483 36.3115 162.054 37.0173 161.383 37.5509C160.695 38.0845 159.784 38.4116 158.649 38.4116C157.17 38.4116 156.052 37.8951 155.261 37.0517L155.261 37.0517ZM156.413 32.7828H160.334C160.265 31.6467 159.543 30.8893 158.46 30.8893C157.222 30.8893 156.62 31.6123 156.413 32.7828ZM167.401 37.0517C166.576 36.2255 166.112 35.0549 166.112 33.7468C166.112 32.4386 166.576 31.268 167.401 30.4245C168.21 29.5983 169.345 29.0818 170.72 29.0818C172.096 29.0818 173.231 29.5983 174.056 30.4245C174.864 31.268 175.329 32.4385 175.329 33.7468C175.329 35.055 174.864 36.2255 174.056 37.0517C173.231 37.8952 172.096 38.4116 170.72 38.4116C169.345 38.4116 168.21 37.8952 167.401 37.0517ZM172.956 33.7468C172.956 32.0082 172.165 30.8549 170.72 30.8549C169.276 30.8549 168.485 32.0082 168.485 33.7468C168.485 35.4681 169.276 36.6214 170.72 36.6214C172.165 36.6214 172.956 35.4681 172.956 33.7468ZM176.825 29.3229V28.531C176.825 27.4466 177.237 26.7236 177.942 26.2933C178.63 25.8801 179.61 25.7424 180.745 25.8629V27.6704C179.645 27.6188 179.163 27.7392 179.163 28.6688V29.3229H180.745V31.0098H179.163V38.1535H176.825V31.0098H175.621V29.3229H176.825V29.3229ZM109.469 41.8457V43.9458H105.772V54.1534H103.279V43.9458H99.5815V41.8457H109.469ZM109.211 53.0517C108.42 52.2255 108.025 51.0378 108.025 49.7295C108.025 48.4213 108.472 47.2508 109.246 46.4245C110.002 45.5983 111.086 45.0818 112.375 45.0818C113.803 45.0818 114.869 45.6155 115.608 46.5622C116.348 47.509 116.726 48.8172 116.726 50.4008H110.329C110.518 51.778 111.24 52.6042 112.582 52.6042C113.51 52.6042 114.026 52.191 114.284 51.5197H116.588C116.433 52.3115 116.004 53.0173 115.333 53.5509C114.645 54.0845 113.734 54.4116 112.599 54.4116C111.12 54.4116 110.002 53.8951 109.211 53.0517L109.211 53.0517ZM110.363 48.7828H114.284C114.215 47.6467 113.493 46.8893 112.41 46.8893C111.172 46.8893 110.57 47.6123 110.363 48.7828ZM118.497 53.0517C117.706 52.2255 117.276 51.0549 117.276 49.7468C117.276 48.4386 117.706 47.268 118.48 46.4245C119.236 45.5983 120.32 45.0818 121.678 45.0818C122.83 45.0818 123.742 45.4261 124.43 45.977C125.1 46.545 125.53 47.3541 125.685 48.318H123.398C123.243 47.5262 122.658 46.9581 121.781 46.9581C120.354 46.9581 119.649 48.0082 119.649 49.7468C119.649 51.4337 120.303 52.5354 121.747 52.5354C122.71 52.5354 123.363 52.0534 123.518 51.0378H125.771C125.702 51.9845 125.289 52.8108 124.619 53.4132C123.931 54.0329 122.968 54.4116 121.799 54.4116C120.389 54.4116 119.288 53.8952 118.497 53.0517ZM129.072 46.4762C129.726 45.5294 130.414 45.0818 131.635 45.0818C132.563 45.0818 133.303 45.4261 133.836 46.0114C134.369 46.6138 134.678 47.4229 134.678 48.3868V54.1533H132.34V48.7311C132.34 47.7671 131.807 47.113 130.809 47.113C129.778 47.113 129.021 47.922 129.021 49.1442V54.1533H126.682V41.8456H129.021V46.476H129.072V46.4762ZM138.358 46.5278C138.96 45.5639 139.751 45.0818 140.972 45.0818C141.901 45.0818 142.64 45.4261 143.173 46.0114C143.706 46.6138 144.016 47.4229 144.016 48.3868V54.1533H141.677V48.7311C141.677 47.7671 141.144 47.113 140.147 47.113C139.115 47.113 138.358 47.922 138.358 49.1442V54.1533H136.02V45.3228H138.307V46.5277H138.358V46.5278ZM146.217 53.0517C145.391 52.2255 144.927 51.0549 144.927 49.7468C144.927 48.4386 145.391 47.268 146.217 46.4245C147.025 45.5983 148.16 45.0818 149.536 45.0818C150.911 45.0818 152.046 45.5983 152.872 46.4245C153.68 47.268 154.144 48.4385 154.144 49.7468C154.144 51.055 153.68 52.2255 152.872 53.0517C152.046 53.8952 150.911 54.4116 149.536 54.4116C148.16 54.4116 147.025 53.8952 146.217 53.0517ZM151.771 49.7468C151.771 48.0082 150.98 46.8549 149.536 46.8549C148.091 46.8549 147.3 48.0082 147.3 49.7468C147.3 51.4681 148.091 52.6214 149.536 52.6214C150.98 52.6214 151.771 51.4681 151.771 49.7468ZM157.497 41.8457V54.1534H155.158V41.8457H157.497ZM159.801 53.0517C158.976 52.2255 158.512 51.0549 158.512 49.7468C158.512 48.4386 158.976 47.268 159.801 46.4245C160.61 45.5983 161.744 45.0818 163.12 45.0818C164.496 45.0818 165.631 45.5983 166.456 46.4245C167.264 47.268 167.729 48.4385 167.729 49.7468C167.729 51.055 167.264 52.2255 166.456 53.0517C165.631 53.8952 164.496 54.4116 163.12 54.4116C161.744 54.4116 160.61 53.8952 159.801 53.0517ZM165.356 49.7468C165.356 48.0082 164.565 46.8549 163.12 46.8549C161.676 46.8549 160.885 48.0082 160.885 49.7468C160.885 51.4681 161.676 52.6214 163.12 52.6214C164.565 52.6214 165.356 51.4681 165.356 49.7468ZM168.468 54.4116H170.789C170.979 54.9624 171.46 55.3928 172.561 55.3928C173.867 55.3928 174.521 54.7903 174.521 53.5509V52.5869H174.469C173.936 53.1895 173.3 53.6197 172.165 53.6197C171.168 53.6197 170.222 53.241 169.5 52.5008C168.76 51.7779 168.279 50.745 168.279 49.4024C168.279 48.0941 168.674 47.0097 169.362 46.2523C170.033 45.4949 170.961 45.0818 172.096 45.0818C173.197 45.0818 174.005 45.5121 174.538 46.2523H174.572V45.3228H176.825V53.482C176.825 54.7213 176.447 55.5648 175.776 56.1672C175.037 56.8558 173.902 57.1656 172.595 57.1656C170.153 57.1656 168.726 56.1328 168.468 54.4115V54.4116ZM174.16 51.0378C174.487 50.6074 174.641 50.0221 174.641 49.3508C174.641 48.6967 174.469 48.0942 174.125 47.6639C173.781 47.2335 173.266 46.9581 172.543 46.9581C171.34 46.9581 170.566 47.8704 170.566 49.368C170.566 50.8828 171.34 51.7435 172.561 51.7435C173.3 51.7435 173.816 51.4681 174.16 51.0378ZM179.25 55.2034C180.196 55.2034 180.557 54.7386 180.557 53.9984C180.557 53.7746 180.522 53.482 180.419 53.1205C180.299 52.7591 180.144 52.277 179.886 51.6057L177.513 45.3228H179.972L181.279 49.2991C181.416 49.7122 181.537 50.177 181.657 50.5728C181.709 50.7967 181.778 51.0032 181.846 51.227H181.881C181.932 51.0032 181.984 50.7967 182.036 50.5728C182.122 50.1769 182.259 49.7122 182.397 49.2991L183.635 45.3228H185.991L182.913 54.3771C182.569 55.3755 182.242 56.0296 181.778 56.4427C181.296 56.873 180.694 57.0452 179.8 57.0452H178.424V55.2034H179.25L179.25 55.2034Z" fill="white"/>
</svg>
